<?xml version="1.0" encoding="UTF-8" standalone="no"?>
<!DOCTYPE svg PUBLIC "-//W3C//DTD SVG 1.1//EN" "http://www.w3.org/Graphics/SVG/1.1/DTD/svg11.dtd">
<!-- Generated by graphviz version 2.36.0 (20140111.2315)
 -->
<!-- Title: jgtracker; 60365 samples Pages: 1 -->
<svg width="100%" height="100%" xmlns="http://www.w3.org/2000/svg" xmlns:xlink="http://www.w3.org/1999/xlink" onmouseup="handleMouseUp(evt)" onmousedown="handleMouseDown(evt)" onmousemove="handleMouseMove(evt)">
<script type="text/ecmascript"><![CDATA[
// SVGPan
// http://www.cyberz.org/blog/2009/12/08/svgpan-a-javascript-svg-panzoomdrag-library/
// Local modification: if(true || ...) below to force panning, never moving.

/**
 *  SVGPan library 1.2
 * ====================
 *
 * Given an unique existing element with id "viewport", including the
 * the library into any SVG adds the following capabilities:
 *
 *  - Mouse panning
 *  - Mouse zooming (using the wheel)
 *  - Object dargging
 *
 * Known issues:
 *
 *  - Zooming (while panning) on Safari has still some issues
 *
 * Releases:
 *
 * 1.2, Sat Mar 20 08:42:50 GMT 2010, Zeng Xiaohui
 *	Fixed a bug with browser mouse handler interaction
 *
 * 1.1, Wed Feb  3 17:39:33 GMT 2010, Zeng Xiaohui
 *	Updated the zoom code to support the mouse wheel on Safari/Chrome
 *
 * 1.0, Andrea Leofreddi
 *	First release
 *
 * This code is licensed under the following BSD license:
 *
 * Copyright 2009-2010 Andrea Leofreddi <a.leofreddi@itcharm.com>. All rights reserved.
 *
 * Redistribution and use in source and binary forms, with or without modification, are
 * permitted provided that the following conditions are met:
 *
 *    1. Redistributions of source code must retain the above copyright notice, this list of
 *       conditions and the following disclaimer.
 *
 *    2. Redistributions in binary form must reproduce the above copyright notice, this list
 *       of conditions and the following disclaimer in the documentation and/or other materials
 *       provided with the distribution.
 *
 * THIS SOFTWARE IS PROVIDED BY Andrea Leofreddi ``AS IS'' AND ANY EXPRESS OR IMPLIED
 * WARRANTIES, INCLUDING, BUT NOT LIMITED TO, THE IMPLIED WARRANTIES OF MERCHANTABILITY AND
 * FITNESS FOR A PARTICULAR PURPOSE ARE DISCLAIMED. IN NO EVENT SHALL Andrea Leofreddi OR
 * CONTRIBUTORS BE LIABLE FOR ANY DIRECT, INDIRECT, INCIDENTAL, SPECIAL, EXEMPLARY, OR
 * CONSEQUENTIAL DAMAGES (INCLUDING, BUT NOT LIMITED TO, PROCUREMENT OF SUBSTITUTE GOODS OR
 * SERVICES; LOSS OF USE, DATA, OR PROFITS; OR BUSINESS INTERRUPTION) HOWEVER CAUSED AND ON
 * ANY THEORY OF LIABILITY, WHETHER IN CONTRACT, STRICT LIABILITY, OR TORT (INCLUDING
 * NEGLIGENCE OR OTHERWISE) ARISING IN ANY WAY OUT OF THE USE OF THIS SOFTWARE, EVEN IF
 * ADVISED OF THE POSSIBILITY OF SUCH DAMAGE.
 *
 * The views and conclusions contained in the software and documentation are those of the
 * authors and should not be interpreted as representing official policies, either expressed
 * or implied, of Andrea Leofreddi.
 */

var root = document.documentElement;

var state = 'none', stateTarget, stateOrigin, stateTf;

setupHandlers(root);

/**
 * Register handlers
 */
function setupHandlers(root){
	setAttributes(root, {
		"onmouseup" : "add(evt)",
		"onmousedown" : "handleMouseDown(evt)",
		"onmousemove" : "handleMouseMove(evt)",
		"onmouseup" : "handleMouseUp(evt)",
		//"onmouseout" : "handleMouseUp(evt)", // Decomment this to stop the pan functionality when dragging out of the SVG element
	});

	if(navigator.userAgent.toLowerCase().indexOf('webkit') >= 0)
		window.addEventListener('mousewheel', handleMouseWheel, false); // Chrome/Safari
	else
		window.addEventListener('DOMMouseScroll', handleMouseWheel, false); // Others

	var g = svgDoc.getElementById("svg");
	g.width = "100%";
	g.height = "100%";
}

/**
 * Instance an SVGPoint object with given event coordinates.
 */
function getEventPoint(evt) {
	var p = root.createSVGPoint();

	p.x = evt.clientX;
	p.y = evt.clientY;

	return p;
}

/**
 * Sets the current transform matrix of an element.
 */
function setCTM(element, matrix) {
	var s = "matrix(" + matrix.a + "," + matrix.b + "," + matrix.c + "," + matrix.d + "," + matrix.e + "," + matrix.f + ")";

	element.setAttribute("transform", s);
}

/**
 * Dumps a matrix to a string (useful for debug).
 */
function dumpMatrix(matrix) {
	var s = "[ " + matrix.a + ", " + matrix.c + ", " + matrix.e + "\n  " + matrix.b + ", " + matrix.d + ", " + matrix.f + "\n  0, 0, 1 ]";

	return s;
}

/**
 * Sets attributes of an element.
 */
function setAttributes(element, attributes){
	for (i in attributes)
		element.setAttributeNS(null, i, attributes[i]);
}

/**
 * Handle mouse move event.
 */
function handleMouseWheel(evt) {
	if(evt.preventDefault)
		evt.preventDefault();

	evt.returnValue = false;

	var svgDoc = evt.target.ownerDocument;

	var delta;

	if(evt.wheelDelta)
		delta = evt.wheelDelta / 3600; // Chrome/Safari
	else
		delta = evt.detail / -90; // Mozilla

	var z = 1 + delta; // Zoom factor: 0.9/1.1

	var g = svgDoc.getElementById("viewport");

	var p = getEventPoint(evt);

	p = p.matrixTransform(g.getCTM().inverse());

	// Compute new scale matrix in current mouse position
	var k = root.createSVGMatrix().translate(p.x, p.y).scale(z).translate(-p.x, -p.y);

        setCTM(g, g.getCTM().multiply(k));

	stateTf = stateTf.multiply(k.inverse());
}

/**
 * Handle mouse move event.
 */
function handleMouseMove(evt) {
	if(evt.preventDefault)
		evt.preventDefault();

	evt.returnValue = false;

	var svgDoc = evt.target.ownerDocument;

	var g = svgDoc.getElementById("viewport");

	if(state == 'pan') {
		// Pan mode
		var p = getEventPoint(evt).matrixTransform(stateTf);

		setCTM(g, stateTf.inverse().translate(p.x - stateOrigin.x, p.y - stateOrigin.y));
	} else if(state == 'move') {
		// Move mode
		var p = getEventPoint(evt).matrixTransform(g.getCTM().inverse());

		setCTM(stateTarget, root.createSVGMatrix().translate(p.x - stateOrigin.x, p.y - stateOrigin.y).multiply(g.getCTM().inverse()).multiply(stateTarget.getCTM()));

		stateOrigin = p;
	}
}

/**
 * Handle click event.
 */
function handleMouseDown(evt) {
	if(evt.preventDefault)
		evt.preventDefault();

	evt.returnValue = false;

	var svgDoc = evt.target.ownerDocument;

	var g = svgDoc.getElementById("viewport");

	if(true || evt.target.tagName == "svg") {
		// Pan mode
		state = 'pan';

		stateTf = g.getCTM().inverse();

		stateOrigin = getEventPoint(evt).matrixTransform(stateTf);
	} else {
		// Move mode
		state = 'move';

		stateTarget = evt.target;

		stateTf = g.getCTM().inverse();

		stateOrigin = getEventPoint(evt).matrixTransform(stateTf);
	}
}

/**
 * Handle mouse button release event.
 */
function handleMouseUp(evt) {
	if(evt.preventDefault)
		evt.preventDefault();

	evt.returnValue = false;

	var svgDoc = evt.target.ownerDocument;

	if(state == 'pan' || state == 'move') {
		// Quit pan mode
		state = '';
	}
}

]]></script>
<g id="viewport" transform="translate(0,0)">
<g id="viewport" class="graph" transform="scale(1 1) rotate(0) translate(4 1570)">
<title>jgtracker; 60365 samples</title>
<polygon fill="white" stroke="none" points="-4,4 -4,-1570 1157,-1570 1157,4 -4,4"/>
<!-- Legend -->
<g id="node1" class="node"><title>Legend</title>
<text text-anchor="start" x="8" y="-1542.8" font-family="Times,serif" font-size="24.00">jgtracker</text>
<text text-anchor="start" x="8" y="-1516.8" font-family="Times,serif" font-size="24.00">Total samples: 60365</text>
<text text-anchor="start" x="8" y="-1490.8" font-family="Times,serif" font-size="24.00">Focusing on: 60365</text>
<text text-anchor="start" x="8" y="-1464.8" font-family="Times,serif" font-size="24.00">Dropped nodes with &lt;= 301 abs(samples)</text>
<text text-anchor="start" x="8" y="-1438.8" font-family="Times,serif" font-size="24.00">Dropped edges with &lt;= 60 samples</text>
</g>
<!-- N1 -->
<g id="node2" class="node"><title>N1</title>
<polygon fill="none" stroke="black" points="507.25,-1514.5 434.75,-1514.5 434.75,-1479.5 507.25,-1479.5 507.25,-1514.5"/>
<text text-anchor="middle" x="471" y="-1504.1" font-family="Times,serif" font-size="8.00">clone</text>
<text text-anchor="end" x="499.5" y="-1495.1" font-family="Times,serif" font-size="8.00">0 (0.0%)</text>
<text text-anchor="end" x="499.5" y="-1486.1" font-family="Times,serif" font-size="8.00">of 49811 (82.5%)</text>
</g>
<!-- N3 -->
<g id="node4" class="node"><title>N3</title>
<polygon fill="none" stroke="black" points="507.25,-1375.5 434.75,-1375.5 434.75,-1340.5 507.25,-1340.5 507.25,-1375.5"/>
<text text-anchor="middle" x="471" y="-1365.1" font-family="Times,serif" font-size="8.00">start_thread</text>
<text text-anchor="end" x="499.5" y="-1356.1" font-family="Times,serif" font-size="8.00">0 (0.0%)</text>
<text text-anchor="end" x="499.5" y="-1347.1" font-family="Times,serif" font-size="8.00">of 49811 (82.5%)</text>
</g>
<!-- N1&#45;&gt;N3 -->
<g id="edge2" class="edge"><title>N1-&gt;N3</title>
<path fill="none" stroke="black" stroke-width="2" d="M471,-1479.47C471,-1456.23 471,-1413.61 471,-1385.8"/>
<polygon fill="black" stroke="black" stroke-width="2" points="474.5,-1385.58 471,-1375.58 467.5,-1385.58 474.5,-1385.58"/>
<text text-anchor="middle" x="488" y="-1398.3" font-family="Times,serif" font-size="14.00">49811</text>
</g>
<!-- N2 -->
<g id="node3" class="node"><title>N2</title>
<polygon fill="none" stroke="black" points="517,-1288 425,-1288 425,-1230 517,-1230 517,-1288"/>
<text text-anchor="middle" x="471" y="-1276.88" font-family="Times,serif" font-size="8.90">cv</text>
<text text-anchor="middle" x="471" y="-1266.88" font-family="Times,serif" font-size="8.90">ForThread</text>
<text text-anchor="middle" x="471" y="-1256.88" font-family="Times,serif" font-size="8.90">thread_loop_wrapper</text>
<text text-anchor="end" x="509" y="-1246.88" font-family="Times,serif" font-size="8.90">19 (0.0%)</text>
<text text-anchor="end" x="509" y="-1236.88" font-family="Times,serif" font-size="8.90">of 49811 (82.5%)</text>
</g>
<!-- N4 -->
<g id="node5" class="node"><title>N4</title>
<polygon fill="none" stroke="black" points="729,-1178 213,-1178 213,-934 729,-934 729,-1178"/>
<text text-anchor="middle" x="471" y="-1131.44" font-family="Times,serif" font-size="53.20">cv</text>
<text text-anchor="middle" x="471" y="-1072.44" font-family="Times,serif" font-size="53.20">CvtColorLoop_Invoker</text>
<text text-anchor="middle" x="471" y="-1013.44" font-family="Times,serif" font-size="53.20">operator</text>
<text text-anchor="end" x="721" y="-954.44" font-family="Times,serif" font-size="53.20">49255 (81.6%)</text>
</g>
<!-- N2&#45;&gt;N4 -->
<g id="edge3" class="edge"><title>N2-&gt;N4</title>
<path fill="none" stroke="black" stroke-width="2" d="M471,-1229.63C471,-1218.09 471,-1203.87 471,-1188.58"/>
<polygon fill="black" stroke="black" stroke-width="2" points="474.5,-1188.4 471,-1178.4 467.5,-1188.4 474.5,-1188.4"/>
<text text-anchor="middle" x="488" y="-1200.3" font-family="Times,serif" font-size="14.00">49255</text>
</g>
<!-- N3&#45;&gt;N2 -->
<g id="edge1" class="edge"><title>N3-&gt;N2</title>
<path fill="none" stroke="black" stroke-width="2" d="M471,-1340.1C471,-1328.57 471,-1312.82 471,-1298.33"/>
<polygon fill="black" stroke="black" stroke-width="2" points="474.5,-1298.09 471,-1288.09 467.5,-1298.09 474.5,-1298.09"/>
<text text-anchor="middle" x="488" y="-1310.3" font-family="Times,serif" font-size="14.00">49811</text>
</g>
<!-- N4&#45;&gt;N4 -->
<g id="edge4" class="edge"><title>N4-&gt;N4</title>
<path fill="none" stroke="black" stroke-width="2" d="M729.064,-1073.05C740.396,-1068.69 747,-1063.01 747,-1056 747,-1051.18 743.878,-1046.99 738.245,-1043.43"/>
<polygon fill="black" stroke="black" stroke-width="2" points="739.587,-1040.19 729.064,-1038.95 736.523,-1046.48 739.587,-1040.19"/>
<text text-anchor="middle" x="764" y="-1052.3" font-family="Times,serif" font-size="14.00">49255</text>
</g>
<!-- N5 -->
<g id="node6" class="node"><title>N5</title>
<polygon fill="none" stroke="black" points="925,-1073.5 799,-1073.5 799,-1038.5 925,-1038.5 925,-1073.5"/>
<text text-anchor="middle" x="862" y="-1063.1" font-family="Times,serif" font-size="8.00">TrackWithParticleFilterAndCMT</text>
<text text-anchor="end" x="917" y="-1054.1" font-family="Times,serif" font-size="8.00">0 (0.0%)</text>
<text text-anchor="end" x="917" y="-1045.1" font-family="Times,serif" font-size="8.00">of 10262 (17.0%)</text>
</g>
<!-- N10 -->
<g id="node11" class="node"><title>N10</title>
<polygon fill="none" stroke="black" points="774.5,-881.5 677.5,-881.5 677.5,-828.5 774.5,-828.5 774.5,-881.5"/>
<text text-anchor="middle" x="726" y="-871.1" font-family="Times,serif" font-size="8.00">jg</text>
<text text-anchor="middle" x="726" y="-862.1" font-family="Times,serif" font-size="8.00">FeaturesExtractor</text>
<text text-anchor="middle" x="726" y="-853.1" font-family="Times,serif" font-size="8.00">UpdateFeatures@42d350</text>
<text text-anchor="end" x="767" y="-844.1" font-family="Times,serif" font-size="8.00">0 (0.0%)</text>
<text text-anchor="end" x="767" y="-835.1" font-family="Times,serif" font-size="8.00">of 5253 (8.7%)</text>
</g>
<!-- N5&#45;&gt;N10 -->
<g id="edge8" class="edge"><title>N5-&gt;N10</title>
<path fill="none" stroke="black" d="M853.199,-1038.47C840.322,-1014.7 815.136,-969.816 790,-934 779.317,-918.778 766.488,-902.767 755.13,-889.239"/>
<polygon fill="black" stroke="black" points="757.777,-886.949 748.64,-881.586 752.438,-891.477 757.777,-886.949"/>
<text text-anchor="middle" x="789" y="-904.3" font-family="Times,serif" font-size="14.00">5253</text>
</g>
<!-- N11 -->
<g id="node12" class="node"><title>N11</title>
<polygon fill="none" stroke="black" points="931,-881.5 793,-881.5 793,-828.5 931,-828.5 931,-881.5"/>
<text text-anchor="middle" x="862" y="-870.78" font-family="Times,serif" font-size="8.40">jg</text>
<text text-anchor="middle" x="862" y="-861.78" font-family="Times,serif" font-size="8.40">SIRParticleFiltersNormalHistogram</text>
<text text-anchor="middle" x="862" y="-852.78" font-family="Times,serif" font-size="8.40">ComputeNormalizedWeights</text>
<text text-anchor="end" x="923" y="-843.78" font-family="Times,serif" font-size="8.40">3 (0.0%)</text>
<text text-anchor="end" x="923" y="-834.78" font-family="Times,serif" font-size="8.40">of 4298 (7.1%)</text>
</g>
<!-- N5&#45;&gt;N11 -->
<g id="edge10" class="edge"><title>N5-&gt;N11</title>
<path fill="none" stroke="black" d="M862,-1038.38C862,-1006.27 862,-935.099 862,-891.769"/>
<polygon fill="black" stroke="black" points="865.5,-891.656 862,-881.656 858.5,-891.656 865.5,-891.656"/>
<text text-anchor="middle" x="876" y="-904.3" font-family="Times,serif" font-size="14.00">4298</text>
</g>
<!-- N28 -->
<g id="node29" class="node"><title>N28</title>
<polygon fill="none" stroke="black" points="1074.25,-881.5 949.75,-881.5 949.75,-828.5 1074.25,-828.5 1074.25,-881.5"/>
<text text-anchor="middle" x="1012" y="-871.1" font-family="Times,serif" font-size="8.00">jg</text>
<text text-anchor="middle" x="1012" y="-862.1" font-family="Times,serif" font-size="8.00">Tracker</text>
<text text-anchor="middle" x="1012" y="-853.1" font-family="Times,serif" font-size="8.00">TrackKeypointsWithOpticalFlow</text>
<text text-anchor="end" x="1066.5" y="-844.1" font-family="Times,serif" font-size="8.00">0 (0.0%)</text>
<text text-anchor="end" x="1066.5" y="-835.1" font-family="Times,serif" font-size="8.00">of 328 (0.5%)</text>
</g>
<!-- N5&#45;&gt;N28 -->
<g id="edge32" class="edge"><title>N5-&gt;N28</title>
<path fill="none" stroke="black" d="M874.531,-1038.38C899.087,-1005.8 953.972,-932.984 986.475,-889.864"/>
<polygon fill="black" stroke="black" points="989.437,-891.748 992.661,-881.656 983.847,-887.535 989.437,-891.748"/>
<text text-anchor="middle" x="985.5" y="-904.3" font-family="Times,serif" font-size="14.00">328</text>
</g>
<!-- N6 -->
<g id="node7" class="node"><title>N6</title>
<polygon fill="none" stroke="black" points="899,-1375.5 825,-1375.5 825,-1340.5 899,-1340.5 899,-1375.5"/>
<text text-anchor="middle" x="862" y="-1365.1" font-family="Times,serif" font-size="8.00">__libc_start_main</text>
<text text-anchor="end" x="891" y="-1356.1" font-family="Times,serif" font-size="8.00">0 (0.0%)</text>
<text text-anchor="end" x="891" y="-1347.1" font-family="Times,serif" font-size="8.00">of 10262 (17.0%)</text>
</g>
<!-- N8 -->
<g id="node9" class="node"><title>N8</title>
<polygon fill="none" stroke="black" points="898.25,-1276.5 825.75,-1276.5 825.75,-1241.5 898.25,-1241.5 898.25,-1276.5"/>
<text text-anchor="middle" x="862" y="-1266.1" font-family="Times,serif" font-size="8.00">main</text>
<text text-anchor="end" x="890.5" y="-1257.1" font-family="Times,serif" font-size="8.00">0 (0.0%)</text>
<text text-anchor="end" x="890.5" y="-1248.1" font-family="Times,serif" font-size="8.00">of 10262 (17.0%)</text>
</g>
<!-- N6&#45;&gt;N8 -->
<g id="edge6" class="edge"><title>N6-&gt;N8</title>
<path fill="none" stroke="black" stroke-width="1.01999" d="M862,-1340.1C862,-1325.5 862,-1304.12 862,-1287.12"/>
<polygon fill="black" stroke="black" stroke-width="1.01999" points="865.5,-1286.7 862,-1276.7 858.5,-1286.7 865.5,-1286.7"/>
<text text-anchor="middle" x="879" y="-1310.3" font-family="Times,serif" font-size="14.00">10262</text>
</g>
<!-- N7 -->
<g id="node8" class="node"><title>N7</title>
<polygon fill="none" stroke="black" points="898.25,-1514.5 825.75,-1514.5 825.75,-1479.5 898.25,-1479.5 898.25,-1514.5"/>
<text text-anchor="middle" x="862" y="-1504.1" font-family="Times,serif" font-size="8.00">_start</text>
<text text-anchor="end" x="890.5" y="-1495.1" font-family="Times,serif" font-size="8.00">0 (0.0%)</text>
<text text-anchor="end" x="890.5" y="-1486.1" font-family="Times,serif" font-size="8.00">of 10262 (17.0%)</text>
</g>
<!-- N7&#45;&gt;N6 -->
<g id="edge5" class="edge"><title>N7-&gt;N6</title>
<path fill="none" stroke="black" stroke-width="1.01999" d="M862,-1479.47C862,-1456.23 862,-1413.61 862,-1385.8"/>
<polygon fill="black" stroke="black" stroke-width="1.01999" points="865.5,-1385.58 862,-1375.58 858.5,-1385.58 865.5,-1385.58"/>
<text text-anchor="middle" x="879" y="-1398.3" font-family="Times,serif" font-size="14.00">10262</text>
</g>
<!-- N8&#45;&gt;N5 -->
<g id="edge7" class="edge"><title>N8-&gt;N5</title>
<path fill="none" stroke="black" stroke-width="1.01999" d="M862,-1241.21C862,-1206.32 862,-1125.73 862,-1083.66"/>
<polygon fill="black" stroke="black" stroke-width="1.01999" points="865.5,-1083.6 862,-1073.6 858.5,-1083.6 865.5,-1083.6"/>
<text text-anchor="middle" x="879" y="-1200.3" font-family="Times,serif" font-size="14.00">10262</text>
</g>
<!-- N9 -->
<g id="node10" class="node"><title>N9</title>
<polygon fill="none" stroke="black" points="774.25,-776 677.75,-776 677.75,-702 774.25,-702 774.25,-776"/>
<text text-anchor="middle" x="726" y="-763.92" font-family="Times,serif" font-size="10.10">cv</text>
<text text-anchor="middle" x="726" y="-752.92" font-family="Times,serif" font-size="10.10">xfeatures2d</text>
<text text-anchor="middle" x="726" y="-741.92" font-family="Times,serif" font-size="10.10">SIFT_Impl</text>
<text text-anchor="middle" x="726" y="-730.92" font-family="Times,serif" font-size="10.10">detectAndCompute</text>
<text text-anchor="end" x="766.5" y="-719.92" font-family="Times,serif" font-size="10.10">108 (0.2%)</text>
<text text-anchor="end" x="766.5" y="-708.92" font-family="Times,serif" font-size="10.10">of 5272 (8.7%)</text>
</g>
<!-- N9&#45;&gt;N9 -->
<g id="edge35" class="edge"><title>N9-&gt;N9</title>
<path fill="none" stroke="black" d="M774.348,-750.25C784.598,-749.107 792,-745.357 792,-739 792,-735.027 789.109,-732.072 784.438,-730.136"/>
<polygon fill="black" stroke="black" points="784.885,-726.645 774.348,-727.75 783.274,-733.457 784.885,-726.645"/>
<text text-anchor="middle" x="802.5" y="-735.3" font-family="Times,serif" font-size="14.00">108</text>
</g>
<!-- N14 -->
<g id="node15" class="node"><title>N14</title>
<polygon fill="none" stroke="black" points="614.25,-488 549.75,-488 549.75,-444 614.25,-444 614.25,-488"/>
<text text-anchor="middle" x="582" y="-477.6" font-family="Times,serif" font-size="8.00">cv</text>
<text text-anchor="middle" x="582" y="-468.6" font-family="Times,serif" font-size="8.00">GaussianBlur</text>
<text text-anchor="end" x="606.5" y="-459.6" font-family="Times,serif" font-size="8.00">0 (0.0%)</text>
<text text-anchor="end" x="606.5" y="-450.6" font-family="Times,serif" font-size="8.00">of 3238 (5.4%)</text>
</g>
<!-- N9&#45;&gt;N14 -->
<g id="edge33" class="edge"><title>N9-&gt;N14</title>
<path fill="none" stroke="black" d="M677.695,-733.776C625.824,-726.368 545.781,-705.994 508,-650 480.655,-609.473 489.138,-585.104 508,-540 515.334,-522.464 529.159,-507 542.894,-494.872"/>
<polygon fill="black" stroke="black" points="545.517,-497.24 550.92,-488.127 541.013,-491.881 545.517,-497.24"/>
<text text-anchor="middle" x="518.5" y="-591.3" font-family="Times,serif" font-size="14.00">305</text>
</g>
<!-- N18 -->
<g id="node19" class="node"><title>N18</title>
<polygon fill="none" stroke="black" points="626.25,-626 537.75,-626 537.75,-564 626.25,-564 626.25,-626"/>
<text text-anchor="middle" x="582" y="-615.6" font-family="Times,serif" font-size="8.00">cv</text>
<text text-anchor="middle" x="582" y="-606.6" font-family="Times,serif" font-size="8.00">xfeatures2d</text>
<text text-anchor="middle" x="582" y="-597.6" font-family="Times,serif" font-size="8.00">SIFT_Impl</text>
<text text-anchor="middle" x="582" y="-588.6" font-family="Times,serif" font-size="8.00">buildGaussianPyramid</text>
<text text-anchor="end" x="618.5" y="-579.6" font-family="Times,serif" font-size="8.00">0 (0.0%)</text>
<text text-anchor="end" x="618.5" y="-570.6" font-family="Times,serif" font-size="8.00">of 2941 (4.9%)</text>
</g>
<!-- N9&#45;&gt;N18 -->
<g id="edge17" class="edge"><title>N9-&gt;N18</title>
<path fill="none" stroke="black" d="M688.688,-701.701C672.459,-685.865 653.248,-667.055 636,-650 630.498,-644.56 624.698,-638.793 619.023,-633.133"/>
<polygon fill="black" stroke="black" points="621.481,-630.641 611.931,-626.051 616.534,-635.594 621.481,-630.641"/>
<text text-anchor="middle" x="684" y="-672.3" font-family="Times,serif" font-size="14.00">2941</text>
</g>
<!-- N20 -->
<g id="node21" class="node"><title>N20</title>
<polygon fill="none" stroke="black" points="807,-650 645,-650 645,-540 807,-540 807,-650"/>
<text text-anchor="middle" x="726" y="-633.92" font-family="Times,serif" font-size="15.10">cv</text>
<text text-anchor="middle" x="726" y="-616.92" font-family="Times,serif" font-size="15.10">xfeatures2d</text>
<text text-anchor="middle" x="726" y="-599.92" font-family="Times,serif" font-size="15.10">SIFT_Impl</text>
<text text-anchor="middle" x="726" y="-582.92" font-family="Times,serif" font-size="15.10">findScaleSpaceExtrema</text>
<text text-anchor="end" x="799" y="-565.92" font-family="Times,serif" font-size="15.10">1228 (2.0%)</text>
<text text-anchor="end" x="799" y="-548.92" font-family="Times,serif" font-size="15.10">of 1371 (2.3%)</text>
</g>
<!-- N9&#45;&gt;N20 -->
<g id="edge21" class="edge"><title>N9-&gt;N20</title>
<path fill="none" stroke="black" d="M726,-701.8C726,-689.171 726,-674.59 726,-660.367"/>
<polygon fill="black" stroke="black" points="729.5,-660.107 726,-650.107 722.5,-660.107 729.5,-660.107"/>
<text text-anchor="middle" x="740" y="-672.3" font-family="Times,serif" font-size="14.00">1371</text>
</g>
<!-- N24 -->
<g id="node25" class="node"><title>N24</title>
<polygon fill="none" stroke="black" points="946.25,-626 871.75,-626 871.75,-564 946.25,-564 946.25,-626"/>
<text text-anchor="middle" x="909" y="-615.6" font-family="Times,serif" font-size="8.00">cv</text>
<text text-anchor="middle" x="909" y="-606.6" font-family="Times,serif" font-size="8.00">xfeatures2d</text>
<text text-anchor="middle" x="909" y="-597.6" font-family="Times,serif" font-size="8.00">SIFT_Impl</text>
<text text-anchor="middle" x="909" y="-588.6" font-family="Times,serif" font-size="8.00">buildDoGPyramid</text>
<text text-anchor="end" x="938.5" y="-579.6" font-family="Times,serif" font-size="8.00">0 (0.0%)</text>
<text text-anchor="end" x="938.5" y="-570.6" font-family="Times,serif" font-size="8.00">of 503 (0.8%)</text>
</g>
<!-- N9&#45;&gt;N24 -->
<g id="edge26" class="edge"><title>N9-&gt;N24</title>
<path fill="none" stroke="black" d="M774.563,-711.121C801.602,-695.07 835.124,-673.309 862,-650 867.616,-645.129 873.173,-639.587 878.393,-633.952"/>
<polygon fill="black" stroke="black" points="881.212,-636.051 885.275,-626.266 875.997,-631.382 881.212,-636.051"/>
<text text-anchor="middle" x="847.5" y="-672.3" font-family="Times,serif" font-size="14.00">503</text>
</g>
<!-- N10&#45;&gt;N9 -->
<g id="edge9" class="edge"><title>N10-&gt;N9</title>
<path fill="none" stroke="black" d="M726,-828.416C726,-816.055 726,-800.828 726,-786.514"/>
<polygon fill="black" stroke="black" points="729.5,-786.307 726,-776.307 722.5,-786.307 729.5,-786.307"/>
<text text-anchor="middle" x="740" y="-798.3" font-family="Times,serif" font-size="14.00">5252</text>
</g>
<!-- N12 -->
<g id="node13" class="node"><title>N12</title>
<polygon fill="none" stroke="black" points="929.5,-761 832.5,-761 832.5,-717 929.5,-717 929.5,-761"/>
<text text-anchor="middle" x="881" y="-750.2" font-family="Times,serif" font-size="8.50">jg</text>
<text text-anchor="middle" x="881" y="-741.2" font-family="Times,serif" font-size="8.50">ComputeHsvHistogram</text>
<text text-anchor="end" x="922" y="-732.2" font-family="Times,serif" font-size="8.50">5 (0.0%)</text>
<text text-anchor="end" x="922" y="-723.2" font-family="Times,serif" font-size="8.50">of 3962 (6.6%)</text>
</g>
<!-- N11&#45;&gt;N12 -->
<g id="edge11" class="edge"><title>N11-&gt;N12</title>
<path fill="none" stroke="black" d="M866.264,-828.416C869.081,-811.514 872.791,-789.253 875.784,-771.296"/>
<polygon fill="black" stroke="black" points="879.259,-771.734 877.451,-761.294 872.355,-770.583 879.259,-771.734"/>
<text text-anchor="middle" x="885" y="-798.3" font-family="Times,serif" font-size="14.00">3962</text>
</g>
<!-- N13 -->
<g id="node14" class="node"><title>N13</title>
<polygon fill="none" stroke="black" points="1107.25,-645 964.75,-645 964.75,-545 1107.25,-545 1107.25,-645"/>
<text text-anchor="middle" x="1036" y="-624.6" font-family="Times,serif" font-size="20.50">cv</text>
<text text-anchor="middle" x="1036" y="-601.6" font-family="Times,serif" font-size="20.50">calcHist</text>
<text text-anchor="end" x="1099.5" y="-578.6" font-family="Times,serif" font-size="20.50">3745 (6.2%)</text>
<text text-anchor="end" x="1099.5" y="-555.6" font-family="Times,serif" font-size="20.50">of 3893 (6.4%)</text>
</g>
<!-- N12&#45;&gt;N13 -->
<g id="edge12" class="edge"><title>N12-&gt;N13</title>
<path fill="none" stroke="black" d="M904.205,-716.741C922.88,-699.633 950.007,-674.781 974.802,-652.065"/>
<polygon fill="black" stroke="black" points="977.401,-654.431 982.41,-645.095 972.672,-649.27 977.401,-654.431"/>
<text text-anchor="middle" x="967" y="-672.3" font-family="Times,serif" font-size="14.00">3892</text>
</g>
<!-- N13&#45;&gt;N13 -->
<g id="edge13" class="edge"><title>N13-&gt;N13</title>
<path fill="none" stroke="black" d="M1107.58,-608.535C1117.99,-606.387 1125,-601.875 1125,-595 1125,-590.596 1122.12,-587.161 1117.32,-584.697"/>
<polygon fill="black" stroke="black" points="1118.18,-581.293 1107.58,-581.465 1115.97,-587.937 1118.18,-581.293"/>
<text text-anchor="middle" x="1139" y="-591.3" font-family="Times,serif" font-size="14.00">3744</text>
</g>
<!-- N15 -->
<g id="node16" class="node"><title>N15</title>
<polygon fill="none" stroke="black" points="614.25,-392 549.75,-392 549.75,-348 614.25,-348 614.25,-392"/>
<text text-anchor="middle" x="582" y="-381.6" font-family="Times,serif" font-size="8.00">cv</text>
<text text-anchor="middle" x="582" y="-372.6" font-family="Times,serif" font-size="8.00">sepFilter2D</text>
<text text-anchor="end" x="606.5" y="-363.6" font-family="Times,serif" font-size="8.00">0 (0.0%)</text>
<text text-anchor="end" x="606.5" y="-354.6" font-family="Times,serif" font-size="8.00">of 3235 (5.4%)</text>
</g>
<!-- N14&#45;&gt;N15 -->
<g id="edge14" class="edge"><title>N14-&gt;N15</title>
<path fill="none" stroke="black" d="M582,-443.67C582,-431.531 582,-416.097 582,-402.578"/>
<polygon fill="black" stroke="black" points="585.5,-402.246 582,-392.246 578.5,-402.246 585.5,-402.246"/>
<text text-anchor="middle" x="596" y="-414.3" font-family="Times,serif" font-size="14.00">3235</text>
</g>
<!-- N16 -->
<g id="node17" class="node"><title>N16</title>
<polygon fill="none" stroke="black" points="614.25,-295.5 549.75,-295.5 549.75,-242.5 614.25,-242.5 614.25,-295.5"/>
<text text-anchor="middle" x="582" y="-285.1" font-family="Times,serif" font-size="8.00">cv</text>
<text text-anchor="middle" x="582" y="-276.1" font-family="Times,serif" font-size="8.00">FilterEngine</text>
<text text-anchor="middle" x="582" y="-267.1" font-family="Times,serif" font-size="8.00">apply</text>
<text text-anchor="end" x="606.5" y="-258.1" font-family="Times,serif" font-size="8.00">0 (0.0%)</text>
<text text-anchor="end" x="606.5" y="-249.1" font-family="Times,serif" font-size="8.00">of 3223 (5.3%)</text>
</g>
<!-- N15&#45;&gt;N16 -->
<g id="edge15" class="edge"><title>N15-&gt;N16</title>
<path fill="none" stroke="black" d="M582,-347.518C582,-335.373 582,-319.873 582,-305.93"/>
<polygon fill="black" stroke="black" points="585.5,-305.652 582,-295.652 578.5,-305.652 585.5,-305.652"/>
<text text-anchor="middle" x="596" y="-318.3" font-family="Times,serif" font-size="14.00">3223</text>
</g>
<!-- N17 -->
<g id="node18" class="node"><title>N17</title>
<polygon fill="none" stroke="black" points="617.25,-190 546.75,-190 546.75,-132 617.25,-132 617.25,-190"/>
<text text-anchor="middle" x="582" y="-178.48" font-family="Times,serif" font-size="9.40">cv</text>
<text text-anchor="middle" x="582" y="-168.48" font-family="Times,serif" font-size="9.40">FilterEngine</text>
<text text-anchor="middle" x="582" y="-158.48" font-family="Times,serif" font-size="9.40">proceed</text>
<text text-anchor="end" x="609.5" y="-148.48" font-family="Times,serif" font-size="9.40">46 (0.1%)</text>
<text text-anchor="end" x="609.5" y="-138.48" font-family="Times,serif" font-size="9.40">of 3217 (5.3%)</text>
</g>
<!-- N16&#45;&gt;N17 -->
<g id="edge16" class="edge"><title>N16-&gt;N17</title>
<path fill="none" stroke="black" d="M582,-242.34C582,-229.743 582,-214.309 582,-200.347"/>
<polygon fill="black" stroke="black" points="585.5,-200.028 582,-190.028 578.5,-200.028 585.5,-200.028"/>
<text text-anchor="middle" x="596" y="-212.3" font-family="Times,serif" font-size="14.00">3217</text>
</g>
<!-- N19 -->
<g id="node20" class="node"><title>N19</title>
<polygon fill="none" stroke="black" points="447.5,-80 350.5,-80 350.5,-0 447.5,-0 447.5,-80"/>
<text text-anchor="middle" x="399" y="-63.04" font-family="Times,serif" font-size="16.20">cv</text>
<text text-anchor="middle" x="399" y="-45.04" font-family="Times,serif" font-size="16.20">RowFilter</text>
<text text-anchor="middle" x="399" y="-27.04" font-family="Times,serif" font-size="16.20">operator</text>
<text text-anchor="end" x="440" y="-9.04" font-family="Times,serif" font-size="16.20">1608 (2.7%)</text>
</g>
<!-- N17&#45;&gt;N19 -->
<g id="edge20" class="edge"><title>N17-&gt;N19</title>
<path fill="none" stroke="black" d="M546.716,-137.056C521.098,-120.397 485.881,-97.4964 456.259,-78.2341"/>
<polygon fill="black" stroke="black" points="457.957,-75.163 447.665,-72.6457 454.141,-81.0314 457.957,-75.163"/>
<text text-anchor="middle" x="521" y="-102.3" font-family="Times,serif" font-size="14.00">1608</text>
</g>
<!-- N21 -->
<g id="node22" class="node"><title>N21</title>
<polygon fill="none" stroke="black" points="652,-78 512,-78 512,-2 652,-2 652,-78"/>
<text text-anchor="middle" x="582" y="-61.68" font-family="Times,serif" font-size="15.40">cv</text>
<text text-anchor="middle" x="582" y="-44.68" font-family="Times,serif" font-size="15.40">SymmColumnFilter</text>
<text text-anchor="middle" x="582" y="-27.68" font-family="Times,serif" font-size="15.40">operator</text>
<text text-anchor="end" x="644" y="-10.68" font-family="Times,serif" font-size="15.40">1329 (2.2%)</text>
</g>
<!-- N17&#45;&gt;N21 -->
<g id="edge23" class="edge"><title>N17-&gt;N21</title>
<path fill="none" stroke="black" d="M582,-131.799C582,-118.731 582,-102.848 582,-88.0428"/>
<polygon fill="black" stroke="black" points="585.5,-88.0127 582,-78.0127 578.5,-88.0128 585.5,-88.0127"/>
<text text-anchor="middle" x="596" y="-102.3" font-family="Times,serif" font-size="14.00">1329</text>
</g>
<!-- N26 -->
<g id="node27" class="node"><title>N26</title>
<polygon fill="none" stroke="black" points="786,-57 716,-57 716,-23 786,-23 786,-57"/>
<text text-anchor="middle" x="751" y="-43.56" font-family="Times,serif" font-size="11.80">envz_strip</text>
<text text-anchor="end" x="778" y="-30.56" font-family="Times,serif" font-size="11.80">347 (0.6%)</text>
</g>
<!-- N17&#45;&gt;N26 -->
<g id="edge34" class="edge"><title>N17-&gt;N26</title>
<path fill="none" stroke="black" d="M617.466,-139.335C643.042,-123.951 678.019,-101.907 707,-80 713.527,-75.0661 720.28,-69.3984 726.479,-63.9402"/>
<polygon fill="black" stroke="black" points="728.872,-66.4951 733.974,-57.2094 724.195,-61.2869 728.872,-66.4951"/>
<text text-anchor="middle" x="690.5" y="-102.3" font-family="Times,serif" font-size="14.00">227</text>
</g>
<!-- N18&#45;&gt;N14 -->
<g id="edge18" class="edge"><title>N18-&gt;N14</title>
<path fill="none" stroke="black" d="M582,-563.903C582,-544.131 582,-518.319 582,-498.307"/>
<polygon fill="black" stroke="black" points="585.5,-498.147 582,-488.147 578.5,-498.148 585.5,-498.147"/>
<text text-anchor="middle" x="596" y="-510.3" font-family="Times,serif" font-size="14.00">2933</text>
</g>
<!-- N19&#45;&gt;N19 -->
<g id="edge19" class="edge"><title>N19-&gt;N19</title>
<path fill="none" stroke="black" d="M447.64,-51.9399C457.738,-50.6831 465,-46.7031 465,-40 465,-35.8105 462.163,-32.6848 457.571,-30.6228"/>
<polygon fill="black" stroke="black" points="458.197,-27.17 447.64,-28.0601 456.448,-33.9479 458.197,-27.17"/>
<text text-anchor="middle" x="479" y="-36.3" font-family="Times,serif" font-size="14.00">1608</text>
</g>
<!-- N20&#45;&gt;N20 -->
<g id="edge24" class="edge"><title>N20-&gt;N20</title>
<path fill="none" stroke="black" d="M807.18,-608.228C817.894,-605.972 825,-601.562 825,-595 825,-590.693 821.94,-587.314 816.808,-584.862"/>
<polygon fill="black" stroke="black" points="817.771,-581.495 807.18,-581.772 815.632,-588.161 817.771,-581.495"/>
<text text-anchor="middle" x="839" y="-591.3" font-family="Times,serif" font-size="14.00">1228</text>
</g>
<!-- N21&#45;&gt;N21 -->
<g id="edge22" class="edge"><title>N21-&gt;N21</title>
<path fill="none" stroke="black" d="M652.071,-51.2843C662.749,-49.5622 670,-45.8008 670,-40 670,-36.2839 667.024,-33.4047 662.078,-31.3625"/>
<polygon fill="black" stroke="black" points="662.633,-27.8891 652.071,-28.7157 660.843,-34.6564 662.633,-27.8891"/>
<text text-anchor="middle" x="684" y="-36.3" font-family="Times,serif" font-size="14.00">1329</text>
</g>
<!-- N22 -->
<g id="node23" class="node"><title>N22</title>
<polygon fill="none" stroke="black" points="939.5,-392 878.5,-392 878.5,-348 939.5,-348 939.5,-392"/>
<text text-anchor="middle" x="909" y="-381.6" font-family="Times,serif" font-size="8.00">cv</text>
<text text-anchor="middle" x="909" y="-372.6" font-family="Times,serif" font-size="8.00">arithm_op</text>
<text text-anchor="end" x="932" y="-363.6" font-family="Times,serif" font-size="8.00">0 (0.0%)</text>
<text text-anchor="end" x="932" y="-354.6" font-family="Times,serif" font-size="8.00">of 503 (0.8%)</text>
</g>
<!-- N25 -->
<g id="node26" class="node"><title>N25</title>
<polygon fill="none" stroke="black" points="945,-294 873,-294 873,-244 945,-244 945,-294"/>
<text text-anchor="middle" x="909" y="-279.92" font-family="Times,serif" font-size="12.60">cv</text>
<text text-anchor="middle" x="909" y="-265.92" font-family="Times,serif" font-size="12.60">vBinOp32</text>
<text text-anchor="end" x="937" y="-251.92" font-family="Times,serif" font-size="12.60">500 (0.8%)</text>
</g>
<!-- N22&#45;&gt;N25 -->
<g id="edge29" class="edge"><title>N22-&gt;N25</title>
<path fill="none" stroke="black" d="M909,-347.518C909,-334.888 909,-318.629 909,-304.266"/>
<polygon fill="black" stroke="black" points="912.5,-304.222 909,-294.222 905.5,-304.222 912.5,-304.222"/>
<text text-anchor="middle" x="919.5" y="-318.3" font-family="Times,serif" font-size="14.00">500</text>
</g>
<!-- N23 -->
<g id="node24" class="node"><title>N23</title>
<polygon fill="none" stroke="black" points="939.5,-488 878.5,-488 878.5,-444 939.5,-444 939.5,-488"/>
<text text-anchor="middle" x="909" y="-477.6" font-family="Times,serif" font-size="8.00">cv</text>
<text text-anchor="middle" x="909" y="-468.6" font-family="Times,serif" font-size="8.00">subtract</text>
<text text-anchor="end" x="932" y="-459.6" font-family="Times,serif" font-size="8.00">0 (0.0%)</text>
<text text-anchor="end" x="932" y="-450.6" font-family="Times,serif" font-size="8.00">of 503 (0.8%)</text>
</g>
<!-- N23&#45;&gt;N22 -->
<g id="edge25" class="edge"><title>N23-&gt;N22</title>
<path fill="none" stroke="black" d="M909,-443.67C909,-431.531 909,-416.097 909,-402.578"/>
<polygon fill="black" stroke="black" points="912.5,-402.246 909,-392.246 905.5,-402.246 912.5,-402.246"/>
<text text-anchor="middle" x="919.5" y="-414.3" font-family="Times,serif" font-size="14.00">503</text>
</g>
<!-- N24&#45;&gt;N23 -->
<g id="edge27" class="edge"><title>N24-&gt;N23</title>
<path fill="none" stroke="black" d="M909,-563.903C909,-544.131 909,-518.319 909,-498.307"/>
<polygon fill="black" stroke="black" points="912.5,-498.147 909,-488.147 905.5,-498.148 912.5,-498.147"/>
<text text-anchor="middle" x="919.5" y="-510.3" font-family="Times,serif" font-size="14.00">503</text>
</g>
<!-- N25&#45;&gt;N25 -->
<g id="edge28" class="edge"><title>N25-&gt;N25</title>
<path fill="none" stroke="black" d="M945.087,-278.702C955.221,-278.277 963,-275.043 963,-269 963,-265.223 959.961,-262.544 955.208,-260.961"/>
<polygon fill="black" stroke="black" points="955.523,-257.466 945.087,-259.298 954.387,-264.373 955.523,-257.466"/>
<text text-anchor="middle" x="973.5" y="-265.3" font-family="Times,serif" font-size="14.00">500</text>
</g>
<!-- N26&#45;&gt;N26 -->
<g id="edge30" class="edge"><title>N26-&gt;N26</title>
<path fill="none" stroke="black" d="M786.168,-52.3267C796.236,-51.8433 804,-47.7344 804,-40 804,-35.166 800.967,-31.7482 796.235,-29.7467"/>
<polygon fill="black" stroke="black" points="796.668,-26.2626 786.168,-27.6733 795.256,-33.1187 796.668,-26.2626"/>
<text text-anchor="middle" x="814.5" y="-36.3" font-family="Times,serif" font-size="14.00">347</text>
</g>
<!-- N27 -->
<g id="node28" class="node"><title>N27</title>
<polygon fill="none" stroke="black" points="1058.25,-761 965.75,-761 965.75,-717 1058.25,-717 1058.25,-761"/>
<text text-anchor="middle" x="1012" y="-750.6" font-family="Times,serif" font-size="8.00">cv</text>
<text text-anchor="middle" x="1012" y="-741.6" font-family="Times,serif" font-size="8.00">calcOpticalFlowPyrLK</text>
<text text-anchor="end" x="1050.5" y="-732.6" font-family="Times,serif" font-size="8.00">0 (0.0%)</text>
<text text-anchor="end" x="1050.5" y="-723.6" font-family="Times,serif" font-size="8.00">of 328 (0.5%)</text>
</g>
<!-- N28&#45;&gt;N27 -->
<g id="edge31" class="edge"><title>N28-&gt;N27</title>
<path fill="none" stroke="black" d="M1012,-828.416C1012,-811.514 1012,-789.253 1012,-771.296"/>
<polygon fill="black" stroke="black" points="1015.5,-771.294 1012,-761.294 1008.5,-771.294 1015.5,-771.294"/>
<text text-anchor="middle" x="1022.5" y="-798.3" font-family="Times,serif" font-size="14.00">328</text>
</g>
</g>
</g></svg>