<?xml version="1.0" encoding="UTF-8" standalone="no"?>
<!DOCTYPE svg PUBLIC "-//W3C//DTD SVG 1.1//EN" "http://www.w3.org/Graphics/SVG/1.1/DTD/svg11.dtd">
<!-- Generated by graphviz version 2.36.0 (20140111.2315)
 -->
<!-- Title: jgtracker; 56616 samples Pages: 1 -->
<svg width="100%" height="100%" xmlns="http://www.w3.org/2000/svg" xmlns:xlink="http://www.w3.org/1999/xlink" onmouseup="handleMouseUp(evt)" onmousedown="handleMouseDown(evt)" onmousemove="handleMouseMove(evt)">
<script type="text/ecmascript"><![CDATA[
// SVGPan
// http://www.cyberz.org/blog/2009/12/08/svgpan-a-javascript-svg-panzoomdrag-library/
// Local modification: if(true || ...) below to force panning, never moving.

/**
 *  SVGPan library 1.2
 * ====================
 *
 * Given an unique existing element with id "viewport", including the
 * the library into any SVG adds the following capabilities:
 *
 *  - Mouse panning
 *  - Mouse zooming (using the wheel)
 *  - Object dargging
 *
 * Known issues:
 *
 *  - Zooming (while panning) on Safari has still some issues
 *
 * Releases:
 *
 * 1.2, Sat Mar 20 08:42:50 GMT 2010, Zeng Xiaohui
 *	Fixed a bug with browser mouse handler interaction
 *
 * 1.1, Wed Feb  3 17:39:33 GMT 2010, Zeng Xiaohui
 *	Updated the zoom code to support the mouse wheel on Safari/Chrome
 *
 * 1.0, Andrea Leofreddi
 *	First release
 *
 * This code is licensed under the following BSD license:
 *
 * Copyright 2009-2010 Andrea Leofreddi <a.leofreddi@itcharm.com>. All rights reserved.
 *
 * Redistribution and use in source and binary forms, with or without modification, are
 * permitted provided that the following conditions are met:
 *
 *    1. Redistributions of source code must retain the above copyright notice, this list of
 *       conditions and the following disclaimer.
 *
 *    2. Redistributions in binary form must reproduce the above copyright notice, this list
 *       of conditions and the following disclaimer in the documentation and/or other materials
 *       provided with the distribution.
 *
 * THIS SOFTWARE IS PROVIDED BY Andrea Leofreddi ``AS IS'' AND ANY EXPRESS OR IMPLIED
 * WARRANTIES, INCLUDING, BUT NOT LIMITED TO, THE IMPLIED WARRANTIES OF MERCHANTABILITY AND
 * FITNESS FOR A PARTICULAR PURPOSE ARE DISCLAIMED. IN NO EVENT SHALL Andrea Leofreddi OR
 * CONTRIBUTORS BE LIABLE FOR ANY DIRECT, INDIRECT, INCIDENTAL, SPECIAL, EXEMPLARY, OR
 * CONSEQUENTIAL DAMAGES (INCLUDING, BUT NOT LIMITED TO, PROCUREMENT OF SUBSTITUTE GOODS OR
 * SERVICES; LOSS OF USE, DATA, OR PROFITS; OR BUSINESS INTERRUPTION) HOWEVER CAUSED AND ON
 * ANY THEORY OF LIABILITY, WHETHER IN CONTRACT, STRICT LIABILITY, OR TORT (INCLUDING
 * NEGLIGENCE OR OTHERWISE) ARISING IN ANY WAY OUT OF THE USE OF THIS SOFTWARE, EVEN IF
 * ADVISED OF THE POSSIBILITY OF SUCH DAMAGE.
 *
 * The views and conclusions contained in the software and documentation are those of the
 * authors and should not be interpreted as representing official policies, either expressed
 * or implied, of Andrea Leofreddi.
 */

var root = document.documentElement;

var state = 'none', stateTarget, stateOrigin, stateTf;

setupHandlers(root);

/**
 * Register handlers
 */
function setupHandlers(root){
	setAttributes(root, {
		"onmouseup" : "add(evt)",
		"onmousedown" : "handleMouseDown(evt)",
		"onmousemove" : "handleMouseMove(evt)",
		"onmouseup" : "handleMouseUp(evt)",
		//"onmouseout" : "handleMouseUp(evt)", // Decomment this to stop the pan functionality when dragging out of the SVG element
	});

	if(navigator.userAgent.toLowerCase().indexOf('webkit') >= 0)
		window.addEventListener('mousewheel', handleMouseWheel, false); // Chrome/Safari
	else
		window.addEventListener('DOMMouseScroll', handleMouseWheel, false); // Others

	var g = svgDoc.getElementById("svg");
	g.width = "100%";
	g.height = "100%";
}

/**
 * Instance an SVGPoint object with given event coordinates.
 */
function getEventPoint(evt) {
	var p = root.createSVGPoint();

	p.x = evt.clientX;
	p.y = evt.clientY;

	return p;
}

/**
 * Sets the current transform matrix of an element.
 */
function setCTM(element, matrix) {
	var s = "matrix(" + matrix.a + "," + matrix.b + "," + matrix.c + "," + matrix.d + "," + matrix.e + "," + matrix.f + ")";

	element.setAttribute("transform", s);
}

/**
 * Dumps a matrix to a string (useful for debug).
 */
function dumpMatrix(matrix) {
	var s = "[ " + matrix.a + ", " + matrix.c + ", " + matrix.e + "\n  " + matrix.b + ", " + matrix.d + ", " + matrix.f + "\n  0, 0, 1 ]";

	return s;
}

/**
 * Sets attributes of an element.
 */
function setAttributes(element, attributes){
	for (i in attributes)
		element.setAttributeNS(null, i, attributes[i]);
}

/**
 * Handle mouse move event.
 */
function handleMouseWheel(evt) {
	if(evt.preventDefault)
		evt.preventDefault();

	evt.returnValue = false;

	var svgDoc = evt.target.ownerDocument;

	var delta;

	if(evt.wheelDelta)
		delta = evt.wheelDelta / 3600; // Chrome/Safari
	else
		delta = evt.detail / -90; // Mozilla

	var z = 1 + delta; // Zoom factor: 0.9/1.1

	var g = svgDoc.getElementById("viewport");

	var p = getEventPoint(evt);

	p = p.matrixTransform(g.getCTM().inverse());

	// Compute new scale matrix in current mouse position
	var k = root.createSVGMatrix().translate(p.x, p.y).scale(z).translate(-p.x, -p.y);

        setCTM(g, g.getCTM().multiply(k));

	stateTf = stateTf.multiply(k.inverse());
}

/**
 * Handle mouse move event.
 */
function handleMouseMove(evt) {
	if(evt.preventDefault)
		evt.preventDefault();

	evt.returnValue = false;

	var svgDoc = evt.target.ownerDocument;

	var g = svgDoc.getElementById("viewport");

	if(state == 'pan') {
		// Pan mode
		var p = getEventPoint(evt).matrixTransform(stateTf);

		setCTM(g, stateTf.inverse().translate(p.x - stateOrigin.x, p.y - stateOrigin.y));
	} else if(state == 'move') {
		// Move mode
		var p = getEventPoint(evt).matrixTransform(g.getCTM().inverse());

		setCTM(stateTarget, root.createSVGMatrix().translate(p.x - stateOrigin.x, p.y - stateOrigin.y).multiply(g.getCTM().inverse()).multiply(stateTarget.getCTM()));

		stateOrigin = p;
	}
}

/**
 * Handle click event.
 */
function handleMouseDown(evt) {
	if(evt.preventDefault)
		evt.preventDefault();

	evt.returnValue = false;

	var svgDoc = evt.target.ownerDocument;

	var g = svgDoc.getElementById("viewport");

	if(true || evt.target.tagName == "svg") {
		// Pan mode
		state = 'pan';

		stateTf = g.getCTM().inverse();

		stateOrigin = getEventPoint(evt).matrixTransform(stateTf);
	} else {
		// Move mode
		state = 'move';

		stateTarget = evt.target;

		stateTf = g.getCTM().inverse();

		stateOrigin = getEventPoint(evt).matrixTransform(stateTf);
	}
}

/**
 * Handle mouse button release event.
 */
function handleMouseUp(evt) {
	if(evt.preventDefault)
		evt.preventDefault();

	evt.returnValue = false;

	var svgDoc = evt.target.ownerDocument;

	if(state == 'pan' || state == 'move') {
		// Quit pan mode
		state = '';
	}
}

]]></script>
<g id="viewport" transform="matrix(1.027025580406189,0,0,1.027025580406189,-11.874795913696289,-432.6113586425781)">
<g id="viewport" class="graph" transform="scale(1 1) rotate(0) translate(4 1660)">
<title>jgtracker; 56616 samples</title>
<polygon fill="white" stroke="none" points="-4,4 -4,-1660 1440,-1660 1440,4 -4,4"/>
<!-- Legend -->
<g id="node1" class="node"><title>Legend</title>
<text text-anchor="start" x="8" y="-1632.8" font-family="Times,serif" font-size="24.00">jgtracker</text>
<text text-anchor="start" x="8" y="-1606.8" font-family="Times,serif" font-size="24.00">Total samples: 56616</text>
<text text-anchor="start" x="8" y="-1580.8" font-family="Times,serif" font-size="24.00">Focusing on: 56616</text>
<text text-anchor="start" x="8" y="-1554.8" font-family="Times,serif" font-size="24.00">Dropped nodes with &lt;= 283 abs(samples)</text>
<text text-anchor="start" x="8" y="-1528.8" font-family="Times,serif" font-size="24.00">Dropped edges with &lt;= 56 samples</text>
</g>
<!-- N1 -->
<g id="node2" class="node"><title>N1</title>
<polygon fill="none" stroke="black" points="507.25,-1604.5 434.75,-1604.5 434.75,-1569.5 507.25,-1569.5 507.25,-1604.5"/>
<text text-anchor="middle" x="471" y="-1594.1" font-family="Times,serif" font-size="8.00">clone</text>
<text text-anchor="end" x="499.5" y="-1585.1" font-family="Times,serif" font-size="8.00">0 (0.0%)</text>
<text text-anchor="end" x="499.5" y="-1576.1" font-family="Times,serif" font-size="8.00">of 50052 (88.4%)</text>
</g>
<!-- N3 -->
<g id="node4" class="node"><title>N3</title>
<polygon fill="none" stroke="black" points="507.25,-1465.5 434.75,-1465.5 434.75,-1430.5 507.25,-1430.5 507.25,-1465.5"/>
<text text-anchor="middle" x="471" y="-1455.1" font-family="Times,serif" font-size="8.00">start_thread</text>
<text text-anchor="end" x="499.5" y="-1446.1" font-family="Times,serif" font-size="8.00">0 (0.0%)</text>
<text text-anchor="end" x="499.5" y="-1437.1" font-family="Times,serif" font-size="8.00">of 50052 (88.4%)</text>
</g>
<!-- N1&#45;&gt;N3 -->
<g id="edge2" class="edge"><title>N1-&gt;N3</title>
<path fill="none" stroke="black" stroke-width="2" d="M471,-1569.47C471,-1546.23 471,-1503.61 471,-1475.8"/>
<polygon fill="black" stroke="black" stroke-width="2" points="474.5,-1475.58 471,-1465.58 467.5,-1475.58 474.5,-1475.58"/>
<text text-anchor="middle" x="488" y="-1488.3" font-family="Times,serif" font-size="14.00">50052</text>
</g>
<!-- N2 -->
<g id="node3" class="node"><title>N2</title>
<polygon fill="none" stroke="black" points="517,-1378 425,-1378 425,-1320 517,-1320 517,-1378"/>
<text text-anchor="middle" x="471" y="-1366.88" font-family="Times,serif" font-size="8.90">cv</text>
<text text-anchor="middle" x="471" y="-1356.88" font-family="Times,serif" font-size="8.90">ForThread</text>
<text text-anchor="middle" x="471" y="-1346.88" font-family="Times,serif" font-size="8.90">thread_loop_wrapper</text>
<text text-anchor="end" x="509" y="-1336.88" font-family="Times,serif" font-size="8.90">19 (0.0%)</text>
<text text-anchor="end" x="509" y="-1326.88" font-family="Times,serif" font-size="8.90">of 50052 (88.4%)</text>
</g>
<!-- N4 -->
<g id="node5" class="node"><title>N4</title>
<polygon fill="none" stroke="black" points="735.25,-1268 206.75,-1268 206.75,-1020 735.25,-1020 735.25,-1268"/>
<text text-anchor="middle" x="471" y="-1220.24" font-family="Times,serif" font-size="54.70">cv</text>
<text text-anchor="middle" x="471" y="-1160.24" font-family="Times,serif" font-size="54.70">CvtColorLoop_Invoker</text>
<text text-anchor="middle" x="471" y="-1100.24" font-family="Times,serif" font-size="54.70">operator</text>
<text text-anchor="end" x="727.5" y="-1040.24" font-family="Times,serif" font-size="54.70">49284 (87.0%)</text>
</g>
<!-- N2&#45;&gt;N4 -->
<g id="edge3" class="edge"><title>N2-&gt;N4</title>
<path fill="none" stroke="black" stroke-width="2" d="M471,-1319.77C471,-1308.16 471,-1293.8 471,-1278.34"/>
<polygon fill="black" stroke="black" stroke-width="2" points="474.5,-1278.04 471,-1268.04 467.5,-1278.04 474.5,-1278.04"/>
<text text-anchor="middle" x="488" y="-1290.3" font-family="Times,serif" font-size="14.00">49284</text>
</g>
<!-- N19 -->
<g id="node20" class="node"><title>N19</title>
<polygon fill="none" stroke="black" points="886,-1173 806,-1173 806,-1115 886,-1115 886,-1173"/>
<text text-anchor="middle" x="846" y="-1161.64" font-family="Times,serif" font-size="9.20">cv</text>
<text text-anchor="middle" x="846" y="-1151.64" font-family="Times,serif" font-size="9.20">BatchDistInvoker</text>
<text text-anchor="middle" x="846" y="-1141.64" font-family="Times,serif" font-size="9.20">operator</text>
<text text-anchor="end" x="878" y="-1131.64" font-family="Times,serif" font-size="9.20">30 (0.1%)</text>
<text text-anchor="end" x="878" y="-1121.64" font-family="Times,serif" font-size="9.20">of 415 (0.7%)</text>
</g>
<!-- N2&#45;&gt;N19 -->
<g id="edge19" class="edge"><title>N2-&gt;N19</title>
<path fill="none" stroke="black" d="M517.282,-1341.86C596.698,-1330.48 754.41,-1303.97 796,-1268 820.891,-1246.47 833.57,-1210.7 839.916,-1183.27"/>
<polygon fill="black" stroke="black" points="843.399,-1183.72 842.051,-1173.21 836.551,-1182.27 843.399,-1183.72"/>
<text text-anchor="middle" x="771.5" y="-1290.3" font-family="Times,serif" font-size="14.00">415</text>
</g>
<!-- N3&#45;&gt;N2 -->
<g id="edge1" class="edge"><title>N3-&gt;N2</title>
<path fill="none" stroke="black" stroke-width="2" d="M471,-1430.1C471,-1418.57 471,-1402.82 471,-1388.33"/>
<polygon fill="black" stroke="black" stroke-width="2" points="474.5,-1388.09 471,-1378.09 467.5,-1388.09 474.5,-1388.09"/>
<text text-anchor="middle" x="488" y="-1400.3" font-family="Times,serif" font-size="14.00">50052</text>
</g>
<!-- N4&#45;&gt;N4 -->
<g id="edge4" class="edge"><title>N4-&gt;N4</title>
<path fill="none" stroke="black" stroke-width="2" d="M735.384,-1161C746.528,-1156.62 753,-1150.96 753,-1144 753,-1139.22 749.941,-1135.04 744.408,-1131.48"/>
<polygon fill="black" stroke="black" stroke-width="2" points="745.897,-1128.31 735.384,-1127 742.784,-1134.58 745.897,-1128.31"/>
<text text-anchor="middle" x="770" y="-1140.3" font-family="Times,serif" font-size="14.00">49284</text>
</g>
<!-- N5 -->
<g id="node6" class="node"><title>N5</title>
<polygon fill="none" stroke="black" points="1081,-1161.5 955,-1161.5 955,-1126.5 1081,-1126.5 1081,-1161.5"/>
<text text-anchor="middle" x="1018" y="-1151.1" font-family="Times,serif" font-size="8.00">TrackWithParticleFilterAndCMT</text>
<text text-anchor="end" x="1073" y="-1142.1" font-family="Times,serif" font-size="8.00">0 (0.0%)</text>
<text text-anchor="end" x="1073" y="-1133.1" font-family="Times,serif" font-size="8.00">of 6273 (11.1%)</text>
</g>
<!-- N9 -->
<g id="node10" class="node"><title>N9</title>
<polygon fill="none" stroke="black" points="1087.25,-967.5 948.75,-967.5 948.75,-914.5 1087.25,-914.5 1087.25,-967.5"/>
<text text-anchor="middle" x="1018" y="-956.7" font-family="Times,serif" font-size="8.50">jg</text>
<text text-anchor="middle" x="1018" y="-947.7" font-family="Times,serif" font-size="8.50">SIRParticleFiltersNormalHistogram</text>
<text text-anchor="middle" x="1018" y="-938.7" font-family="Times,serif" font-size="8.50">ComputeNormalizedWeights</text>
<text text-anchor="end" x="1079.5" y="-929.7" font-family="Times,serif" font-size="8.50">5 (0.0%)</text>
<text text-anchor="end" x="1079.5" y="-920.7" font-family="Times,serif" font-size="8.50">of 4216 (7.4%)</text>
</g>
<!-- N5&#45;&gt;N9 -->
<g id="edge8" class="edge"><title>N5-&gt;N9</title>
<path fill="none" stroke="black" d="M1018,-1126.21C1018,-1093.7 1018,-1021.51 1018,-977.776"/>
<polygon fill="black" stroke="black" points="1021.5,-977.577 1018,-967.577 1014.5,-977.577 1021.5,-977.577"/>
<text text-anchor="middle" x="1032" y="-990.3" font-family="Times,serif" font-size="14.00">4216</text>
</g>
<!-- N14 -->
<g id="node15" class="node"><title>N14</title>
<polygon fill="none" stroke="black" points="1203.5,-967.5 1106.5,-967.5 1106.5,-914.5 1203.5,-914.5 1203.5,-967.5"/>
<text text-anchor="middle" x="1155" y="-957.1" font-family="Times,serif" font-size="8.00">jg</text>
<text text-anchor="middle" x="1155" y="-948.1" font-family="Times,serif" font-size="8.00">FeaturesExtractor</text>
<text text-anchor="middle" x="1155" y="-939.1" font-family="Times,serif" font-size="8.00">UpdateFeatures@42d350</text>
<text text-anchor="end" x="1196" y="-930.1" font-family="Times,serif" font-size="8.00">0 (0.0%)</text>
<text text-anchor="end" x="1196" y="-921.1" font-family="Times,serif" font-size="8.00">of 1223 (2.2%)</text>
</g>
<!-- N5&#45;&gt;N14 -->
<g id="edge14" class="edge"><title>N5-&gt;N14</title>
<path fill="none" stroke="black" d="M1029.44,-1126.21C1051.93,-1093.21 1102.27,-1019.36 1131.93,-975.853"/>
<polygon fill="black" stroke="black" points="1134.83,-977.812 1137.57,-967.577 1129.04,-973.869 1134.83,-977.812"/>
<text text-anchor="middle" x="1135" y="-990.3" font-family="Times,serif" font-size="14.00">1223</text>
</g>
<!-- N25 -->
<g id="node26" class="node"><title>N25</title>
<polygon fill="none" stroke="black" points="1347.25,-967.5 1222.75,-967.5 1222.75,-914.5 1347.25,-914.5 1347.25,-967.5"/>
<text text-anchor="middle" x="1285" y="-957.1" font-family="Times,serif" font-size="8.00">jg</text>
<text text-anchor="middle" x="1285" y="-948.1" font-family="Times,serif" font-size="8.00">Tracker</text>
<text text-anchor="middle" x="1285" y="-939.1" font-family="Times,serif" font-size="8.00">TrackKeypointsWithOpticalFlow</text>
<text text-anchor="end" x="1339.5" y="-930.1" font-family="Times,serif" font-size="8.00">0 (0.0%)</text>
<text text-anchor="end" x="1339.5" y="-921.1" font-family="Times,serif" font-size="8.00">of 309 (0.5%)</text>
</g>
<!-- N5&#45;&gt;N25 -->
<g id="edge24" class="edge"><title>N5-&gt;N25</title>
<path fill="none" stroke="black" d="M1040.31,-1126.21C1084.86,-1092.66 1185.52,-1016.89 1242.89,-973.703"/>
<polygon fill="black" stroke="black" points="1245.14,-976.388 1251.02,-967.577 1240.93,-970.795 1245.14,-976.388"/>
<text text-anchor="middle" x="1230.5" y="-990.3" font-family="Times,serif" font-size="14.00">309</text>
</g>
<!-- N6 -->
<g id="node7" class="node"><title>N6</title>
<polygon fill="none" stroke="black" points="1055,-1465.5 981,-1465.5 981,-1430.5 1055,-1430.5 1055,-1465.5"/>
<text text-anchor="middle" x="1018" y="-1455.1" font-family="Times,serif" font-size="8.00">__libc_start_main</text>
<text text-anchor="end" x="1047" y="-1446.1" font-family="Times,serif" font-size="8.00">0 (0.0%)</text>
<text text-anchor="end" x="1047" y="-1437.1" font-family="Times,serif" font-size="8.00">of 6273 (11.1%)</text>
</g>
<!-- N8 -->
<g id="node9" class="node"><title>N8</title>
<polygon fill="none" stroke="black" points="1052.25,-1366.5 983.75,-1366.5 983.75,-1331.5 1052.25,-1331.5 1052.25,-1366.5"/>
<text text-anchor="middle" x="1018" y="-1356.1" font-family="Times,serif" font-size="8.00">main</text>
<text text-anchor="end" x="1044.5" y="-1347.1" font-family="Times,serif" font-size="8.00">0 (0.0%)</text>
<text text-anchor="end" x="1044.5" y="-1338.1" font-family="Times,serif" font-size="8.00">of 6273 (11.1%)</text>
</g>
<!-- N6&#45;&gt;N8 -->
<g id="edge6" class="edge"><title>N6-&gt;N8</title>
<path fill="none" stroke="black" d="M1018,-1430.1C1018,-1415.5 1018,-1394.12 1018,-1377.12"/>
<polygon fill="black" stroke="black" points="1021.5,-1376.7 1018,-1366.7 1014.5,-1376.7 1021.5,-1376.7"/>
<text text-anchor="middle" x="1032" y="-1400.3" font-family="Times,serif" font-size="14.00">6273</text>
</g>
<!-- N7 -->
<g id="node8" class="node"><title>N7</title>
<polygon fill="none" stroke="black" points="1052.25,-1604.5 983.75,-1604.5 983.75,-1569.5 1052.25,-1569.5 1052.25,-1604.5"/>
<text text-anchor="middle" x="1018" y="-1594.1" font-family="Times,serif" font-size="8.00">_start</text>
<text text-anchor="end" x="1044.5" y="-1585.1" font-family="Times,serif" font-size="8.00">0 (0.0%)</text>
<text text-anchor="end" x="1044.5" y="-1576.1" font-family="Times,serif" font-size="8.00">of 6273 (11.1%)</text>
</g>
<!-- N7&#45;&gt;N6 -->
<g id="edge7" class="edge"><title>N7-&gt;N6</title>
<path fill="none" stroke="black" d="M1018,-1569.47C1018,-1546.23 1018,-1503.61 1018,-1475.8"/>
<polygon fill="black" stroke="black" points="1021.5,-1475.58 1018,-1465.58 1014.5,-1475.58 1021.5,-1475.58"/>
<text text-anchor="middle" x="1032" y="-1488.3" font-family="Times,serif" font-size="14.00">6273</text>
</g>
<!-- N8&#45;&gt;N5 -->
<g id="edge5" class="edge"><title>N8-&gt;N5</title>
<path fill="none" stroke="black" d="M1018,-1331.39C1018,-1296.28 1018,-1214.29 1018,-1171.72"/>
<polygon fill="black" stroke="black" points="1021.5,-1171.56 1018,-1161.56 1014.5,-1171.56 1021.5,-1171.56"/>
<text text-anchor="middle" x="1032" y="-1290.3" font-family="Times,serif" font-size="14.00">6273</text>
</g>
<!-- N10 -->
<g id="node11" class="node"><title>N10</title>
<polygon fill="none" stroke="black" points="1064,-854 972,-854 972,-810 1064,-810 1064,-854"/>
<text text-anchor="middle" x="1018" y="-843.6" font-family="Times,serif" font-size="8.00">jg</text>
<text text-anchor="middle" x="1018" y="-834.6" font-family="Times,serif" font-size="8.00">ComputeHsvHistogram</text>
<text text-anchor="end" x="1056" y="-825.6" font-family="Times,serif" font-size="8.00">0 (0.0%)</text>
<text text-anchor="end" x="1056" y="-816.6" font-family="Times,serif" font-size="8.00">of 3856 (6.8%)</text>
</g>
<!-- N9&#45;&gt;N10 -->
<g id="edge9" class="edge"><title>N9-&gt;N10</title>
<path fill="none" stroke="black" d="M1018,-914.371C1018,-899.401 1018,-880.392 1018,-864.513"/>
<polygon fill="black" stroke="black" points="1021.5,-864.107 1018,-854.107 1014.5,-864.107 1021.5,-864.107"/>
<text text-anchor="middle" x="1032" y="-884.3" font-family="Times,serif" font-size="14.00">3856</text>
</g>
<!-- N11 -->
<g id="node12" class="node"><title>N11</title>
<polygon fill="none" stroke="black" points="1089.25,-750 946.75,-750 946.75,-650 1089.25,-650 1089.25,-750"/>
<text text-anchor="middle" x="1018" y="-729.44" font-family="Times,serif" font-size="20.70">cv</text>
<text text-anchor="middle" x="1018" y="-706.44" font-family="Times,serif" font-size="20.70">calcHist</text>
<text text-anchor="end" x="1081.5" y="-683.44" font-family="Times,serif" font-size="20.70">3652 (6.5%)</text>
<text text-anchor="end" x="1081.5" y="-660.44" font-family="Times,serif" font-size="20.70">of 3781 (6.7%)</text>
</g>
<!-- N10&#45;&gt;N11 -->
<g id="edge10" class="edge"><title>N10-&gt;N11</title>
<path fill="none" stroke="black" d="M1018,-809.824C1018,-796.352 1018,-778.178 1018,-760.544"/>
<polygon fill="black" stroke="black" points="1021.5,-760.263 1018,-750.263 1014.5,-760.263 1021.5,-760.263"/>
<text text-anchor="middle" x="1032" y="-772.3" font-family="Times,serif" font-size="14.00">3780</text>
</g>
<!-- N11&#45;&gt;N11 -->
<g id="edge11" class="edge"><title>N11-&gt;N11</title>
<path fill="none" stroke="black" d="M1089.58,-712.858C1099.99,-710.817 1107,-706.531 1107,-700 1107,-695.816 1104.12,-692.553 1099.32,-690.212"/>
<polygon fill="black" stroke="black" points="1100.17,-686.811 1089.58,-687.142 1098.07,-693.487 1100.17,-686.811"/>
<text text-anchor="middle" x="1121" y="-696.3" font-family="Times,serif" font-size="14.00">3651</text>
</g>
<!-- N12 -->
<g id="node13" class="node"><title>N12</title>
<polygon fill="none" stroke="black" points="1328,-731.5 1154,-731.5 1154,-668.5 1328,-668.5 1328,-731.5"/>
<text text-anchor="middle" x="1241" y="-719.5" font-family="Times,serif" font-size="10.00">cv</text>
<text text-anchor="middle" x="1241" y="-708.5" font-family="Times,serif" font-size="10.00">BRISK_Impl</text>
<text text-anchor="middle" x="1241" y="-697.5" font-family="Times,serif" font-size="10.00">computeDescriptorsAndOrOrientation</text>
<text text-anchor="end" x="1320" y="-686.5" font-family="Times,serif" font-size="10.00">92 (0.2%)</text>
<text text-anchor="end" x="1320" y="-675.5" font-family="Times,serif" font-size="10.00">of 1228 (2.2%)</text>
</g>
<!-- N12&#45;&gt;N12 -->
<g id="edge33" class="edge"><title>N12-&gt;N12</title>
<path fill="none" stroke="black" d="M1328.3,-712.329C1338.99,-710.121 1346,-706.012 1346,-700 1346,-696.055 1342.98,-692.929 1337.89,-690.622"/>
<polygon fill="black" stroke="black" points="1338.89,-687.269 1328.3,-687.671 1336.83,-693.959 1338.89,-687.269"/>
<text text-anchor="middle" x="1353" y="-696.3" font-family="Times,serif" font-size="14.00">92</text>
</g>
<!-- N15 -->
<g id="node16" class="node"><title>N15</title>
<polygon fill="none" stroke="black" points="1302,-597.5 1180,-597.5 1180,-544.5 1302,-544.5 1302,-597.5"/>
<text text-anchor="middle" x="1241" y="-587.1" font-family="Times,serif" font-size="8.00">cv</text>
<text text-anchor="middle" x="1241" y="-578.1" font-family="Times,serif" font-size="8.00">BRISK_Impl</text>
<text text-anchor="middle" x="1241" y="-569.1" font-family="Times,serif" font-size="8.00">computeKeypointsNoOrientation</text>
<text text-anchor="end" x="1294" y="-560.1" font-family="Times,serif" font-size="8.00">0 (0.0%)</text>
<text text-anchor="end" x="1294" y="-551.1" font-family="Times,serif" font-size="8.00">of 1126 (2.0%)</text>
</g>
<!-- N12&#45;&gt;N15 -->
<g id="edge15" class="edge"><title>N12-&gt;N15</title>
<path fill="none" stroke="black" d="M1241,-668.257C1241,-650.047 1241,-626.887 1241,-607.848"/>
<polygon fill="black" stroke="black" points="1244.5,-607.753 1241,-597.753 1237.5,-607.753 1244.5,-607.753"/>
<text text-anchor="middle" x="1255" y="-620.3" font-family="Times,serif" font-size="14.00">1126</text>
</g>
<!-- N13 -->
<g id="node14" class="node"><title>N13</title>
<polygon fill="none" stroke="black" points="1220,-858.5 1142,-858.5 1142,-805.5 1220,-805.5 1220,-858.5"/>
<text text-anchor="middle" x="1181" y="-848.1" font-family="Times,serif" font-size="8.00">cv</text>
<text text-anchor="middle" x="1181" y="-839.1" font-family="Times,serif" font-size="8.00">BRISK_Impl</text>
<text text-anchor="middle" x="1181" y="-830.1" font-family="Times,serif" font-size="8.00">detectAndCompute</text>
<text text-anchor="end" x="1212" y="-821.1" font-family="Times,serif" font-size="8.00">0 (0.0%)</text>
<text text-anchor="end" x="1212" y="-812.1" font-family="Times,serif" font-size="8.00">of 1228 (2.2%)</text>
</g>
<!-- N13&#45;&gt;N12 -->
<g id="edge12" class="edge"><title>N13-&gt;N12</title>
<path fill="none" stroke="black" d="M1192.85,-805.316C1201.32,-786.964 1212.89,-761.914 1222.56,-740.961"/>
<polygon fill="black" stroke="black" points="1225.84,-742.208 1226.85,-731.662 1219.48,-739.274 1225.84,-742.208"/>
<text text-anchor="middle" x="1223" y="-772.3" font-family="Times,serif" font-size="14.00">1228</text>
</g>
<!-- N14&#45;&gt;N13 -->
<g id="edge13" class="edge"><title>N14-&gt;N13</title>
<path fill="none" stroke="black" d="M1161.23,-914.371C1164.55,-900.707 1168.69,-883.679 1172.32,-868.736"/>
<polygon fill="black" stroke="black" points="1175.77,-869.335 1174.73,-858.791 1168.97,-867.682 1175.77,-869.335"/>
<text text-anchor="middle" x="1183" y="-884.3" font-family="Times,serif" font-size="14.00">1223</text>
</g>
<!-- N16 -->
<g id="node17" class="node"><title>N16</title>
<polygon fill="none" stroke="black" points="1279,-492 1203,-492 1203,-434 1279,-434 1279,-492"/>
<text text-anchor="middle" x="1241" y="-480.72" font-family="Times,serif" font-size="9.10">cv</text>
<text text-anchor="middle" x="1241" y="-470.72" font-family="Times,serif" font-size="9.10">BriskScaleSpace</text>
<text text-anchor="middle" x="1241" y="-460.72" font-family="Times,serif" font-size="9.10">getKeypoints</text>
<text text-anchor="end" x="1271" y="-450.72" font-family="Times,serif" font-size="9.10">25 (0.0%)</text>
<text text-anchor="end" x="1271" y="-440.72" font-family="Times,serif" font-size="9.10">of 1098 (1.9%)</text>
</g>
<!-- N15&#45;&gt;N16 -->
<g id="edge16" class="edge"><title>N15-&gt;N16</title>
<path fill="none" stroke="black" d="M1241,-544.34C1241,-531.743 1241,-516.309 1241,-502.347"/>
<polygon fill="black" stroke="black" points="1244.5,-502.028 1241,-492.028 1237.5,-502.028 1244.5,-502.028"/>
<text text-anchor="middle" x="1255" y="-514.3" font-family="Times,serif" font-size="14.00">1098</text>
</g>
<!-- N17 -->
<g id="node18" class="node"><title>N17</title>
<polygon fill="none" stroke="black" points="1279,-382 1203,-382 1203,-324 1279,-324 1279,-382"/>
<text text-anchor="middle" x="1241" y="-370.72" font-family="Times,serif" font-size="9.10">cv</text>
<text text-anchor="middle" x="1241" y="-360.72" font-family="Times,serif" font-size="9.10">BriskScaleSpace</text>
<text text-anchor="middle" x="1241" y="-350.72" font-family="Times,serif" font-size="9.10">refine3D</text>
<text text-anchor="end" x="1271" y="-340.72" font-family="Times,serif" font-size="9.10">25 (0.0%)</text>
<text text-anchor="end" x="1271" y="-330.72" font-family="Times,serif" font-size="9.10">of 733 (1.3%)</text>
</g>
<!-- N16&#45;&gt;N17 -->
<g id="edge17" class="edge"><title>N16-&gt;N17</title>
<path fill="none" stroke="black" d="M1241,-433.906C1241,-421.256 1241,-406.12 1241,-392.44"/>
<polygon fill="black" stroke="black" points="1244.5,-392.328 1241,-382.328 1237.5,-392.328 1244.5,-392.328"/>
<text text-anchor="middle" x="1251.5" y="-404.3" font-family="Times,serif" font-size="14.00">733</text>
</g>
<!-- N23 -->
<g id="node24" class="node"><title>N23</title>
<polygon fill="none" stroke="black" points="1379,-379.5 1311,-379.5 1311,-326.5 1379,-326.5 1379,-379.5"/>
<text text-anchor="middle" x="1345" y="-368.86" font-family="Times,serif" font-size="8.30">cv</text>
<text text-anchor="middle" x="1345" y="-359.86" font-family="Times,serif" font-size="8.30">BriskLayer</text>
<text text-anchor="middle" x="1345" y="-350.86" font-family="Times,serif" font-size="8.30">getAgastPoints</text>
<text text-anchor="end" x="1371" y="-341.86" font-family="Times,serif" font-size="8.30">2 (0.0%)</text>
<text text-anchor="end" x="1371" y="-332.86" font-family="Times,serif" font-size="8.30">of 309 (0.5%)</text>
</g>
<!-- N16&#45;&gt;N23 -->
<g id="edge26" class="edge"><title>N16-&gt;N23</title>
<path fill="none" stroke="black" d="M1268.05,-433.906C1281.79,-419.643 1298.57,-402.219 1312.95,-387.286"/>
<polygon fill="black" stroke="black" points="1315.8,-389.365 1320.22,-379.734 1310.76,-384.509 1315.8,-389.365"/>
<text text-anchor="middle" x="1309.5" y="-404.3" font-family="Times,serif" font-size="14.00">309</text>
</g>
<!-- N18 -->
<g id="node19" class="node"><title>N18</title>
<polygon fill="none" stroke="black" points="1298.5,-53.5 1183.5,-53.5 1183.5,-0.5 1298.5,-0.5 1298.5,-53.5"/>
<text text-anchor="middle" x="1241" y="-38.78" font-family="Times,serif" font-size="13.40">cv</text>
<text text-anchor="middle" x="1241" y="-23.78" font-family="Times,serif" font-size="13.40">agast_cornerScore</text>
<text text-anchor="end" x="1291" y="-8.78" font-family="Times,serif" font-size="13.40">661 (1.2%)</text>
</g>
<!-- N17&#45;&gt;N18 -->
<g id="edge30" class="edge"><title>N17-&gt;N18</title>
<path fill="none" stroke="black" d="M1215.43,-323.88C1204.05,-309.474 1191.9,-290.993 1186,-272 1163.24,-198.715 1198.11,-110.336 1221.89,-62.6248"/>
<polygon fill="black" stroke="black" points="1225.05,-64.1389 1226.48,-53.6412 1218.82,-60.9549 1225.05,-64.1389"/>
<text text-anchor="middle" x="1191.5" y="-184.3" font-family="Times,serif" font-size="14.00">128</text>
</g>
<!-- N20 -->
<g id="node21" class="node"><title>N20</title>
<polygon fill="none" stroke="black" points="1287,-272 1195,-272 1195,-214 1287,-214 1287,-272"/>
<text text-anchor="middle" x="1241" y="-260.48" font-family="Times,serif" font-size="9.40">cv</text>
<text text-anchor="middle" x="1241" y="-250.48" font-family="Times,serif" font-size="9.40">BriskScaleSpace</text>
<text text-anchor="middle" x="1241" y="-240.48" font-family="Times,serif" font-size="9.40">getScoreMaxAbove</text>
<text text-anchor="end" x="1279" y="-230.48" font-family="Times,serif" font-size="9.40">43 (0.1%)</text>
<text text-anchor="end" x="1279" y="-220.48" font-family="Times,serif" font-size="9.40">of 394 (0.7%)</text>
</g>
<!-- N17&#45;&gt;N20 -->
<g id="edge20" class="edge"><title>N17-&gt;N20</title>
<path fill="none" stroke="black" d="M1241,-323.906C1241,-311.256 1241,-296.12 1241,-282.44"/>
<polygon fill="black" stroke="black" points="1244.5,-282.328 1241,-272.328 1237.5,-282.328 1244.5,-282.328"/>
<text text-anchor="middle" x="1251.5" y="-294.3" font-family="Times,serif" font-size="14.00">394</text>
</g>
<!-- N18&#45;&gt;N18 -->
<g id="edge18" class="edge"><title>N18-&gt;N18</title>
<path fill="none" stroke="black" d="M1298.54,-36.1781C1308.82,-34.9852 1316,-31.9258 1316,-27 1316,-23.9214 1313.2,-21.5718 1308.58,-19.9514"/>
<polygon fill="black" stroke="black" points="1309.05,-16.4731 1298.54,-17.8219 1307.6,-23.3208 1309.05,-16.4731"/>
<text text-anchor="middle" x="1326.5" y="-23.3" font-family="Times,serif" font-size="14.00">659</text>
</g>
<!-- N21 -->
<g id="node22" class="node"><title>N21</title>
<polygon fill="none" stroke="black" points="887.25,-963 804.75,-963 804.75,-919 887.25,-919 887.25,-963"/>
<text text-anchor="middle" x="846" y="-952.12" font-family="Times,serif" font-size="8.60">cv</text>
<text text-anchor="middle" x="846" y="-943.12" font-family="Times,serif" font-size="8.60">batchDistHamming</text>
<text text-anchor="end" x="879.5" y="-934.12" font-family="Times,serif" font-size="8.60">8 (0.0%)</text>
<text text-anchor="end" x="879.5" y="-925.12" font-family="Times,serif" font-size="8.60">of 385 (0.7%)</text>
</g>
<!-- N19&#45;&gt;N21 -->
<g id="edge21" class="edge"><title>N19-&gt;N21</title>
<path fill="none" stroke="black" d="M846,-1114.63C846,-1077.34 846,-1012.04 846,-973.335"/>
<polygon fill="black" stroke="black" points="849.5,-973.167 846,-963.167 842.5,-973.167 849.5,-973.167"/>
<text text-anchor="middle" x="856.5" y="-990.3" font-family="Times,serif" font-size="14.00">385</text>
</g>
<!-- N20&#45;&gt;N18 -->
<g id="edge31" class="edge"><title>N20-&gt;N18</title>
<path fill="none" stroke="black" d="M1241,-213.582C1241,-174.906 1241,-105.702 1241,-63.6081"/>
<polygon fill="black" stroke="black" points="1244.5,-63.5254 1241,-53.5254 1237.5,-63.5255 1244.5,-63.5254"/>
<text text-anchor="middle" x="1251.5" y="-130.3" font-family="Times,serif" font-size="14.00">111</text>
</g>
<!-- N22 -->
<g id="node23" class="node"><title>N22</title>
<polygon fill="none" stroke="black" points="915,-862 777,-862 777,-802 915,-802 915,-862"/>
<text text-anchor="middle" x="846" y="-848.32" font-family="Times,serif" font-size="12.10">cv</text>
<text text-anchor="middle" x="846" y="-835.32" font-family="Times,serif" font-size="12.10">hal</text>
<text text-anchor="middle" x="846" y="-822.32" font-family="Times,serif" font-size="12.10">normHamming@221590</text>
<text text-anchor="end" x="907" y="-809.32" font-family="Times,serif" font-size="12.10">377 (0.7%)</text>
</g>
<!-- N21&#45;&gt;N22 -->
<g id="edge23" class="edge"><title>N21-&gt;N22</title>
<path fill="none" stroke="black" d="M846,-918.86C846,-905.571 846,-888.014 846,-872.241"/>
<polygon fill="black" stroke="black" points="849.5,-872.196 846,-862.196 842.5,-872.196 849.5,-872.196"/>
<text text-anchor="middle" x="856.5" y="-884.3" font-family="Times,serif" font-size="14.00">373</text>
</g>
<!-- N22&#45;&gt;N22 -->
<g id="edge22" class="edge"><title>N22-&gt;N22</title>
<path fill="none" stroke="black" d="M915.275,-841.575C925.831,-840.113 933,-836.922 933,-832 933,-828.847 930.058,-826.404 925.168,-824.671"/>
<polygon fill="black" stroke="black" points="925.801,-821.226 915.275,-822.425 924.252,-828.052 925.801,-821.226"/>
<text text-anchor="middle" x="943.5" y="-828.3" font-family="Times,serif" font-size="14.00">373</text>
</g>
<!-- N27 -->
<g id="node28" class="node"><title>N27</title>
<polygon fill="none" stroke="black" points="1412.25,-269.5 1305.75,-269.5 1305.75,-216.5 1412.25,-216.5 1412.25,-269.5"/>
<text text-anchor="middle" x="1359" y="-259.1" font-family="Times,serif" font-size="8.00">cv</text>
<text text-anchor="middle" x="1359" y="-250.1" font-family="Times,serif" font-size="8.00">AgastFeatureDetector_Impl</text>
<text text-anchor="middle" x="1359" y="-241.1" font-family="Times,serif" font-size="8.00">detect</text>
<text text-anchor="end" x="1404.5" y="-232.1" font-family="Times,serif" font-size="8.00">0 (0.0%)</text>
<text text-anchor="end" x="1404.5" y="-223.1" font-family="Times,serif" font-size="8.00">of 307 (0.5%)</text>
</g>
<!-- N23&#45;&gt;N27 -->
<g id="edge27" class="edge"><title>N23-&gt;N27</title>
<path fill="none" stroke="black" d="M1348.32,-326.406C1350.12,-312.519 1352.37,-295.129 1354.35,-279.907"/>
<polygon fill="black" stroke="black" points="1357.84,-280.152 1355.66,-269.785 1350.9,-279.252 1357.84,-280.152"/>
<text text-anchor="middle" x="1362.5" y="-294.3" font-family="Times,serif" font-size="14.00">307</text>
</g>
<!-- N24 -->
<g id="node25" class="node"><title>N24</title>
<polygon fill="none" stroke="black" points="1331.25,-854 1238.75,-854 1238.75,-810 1331.25,-810 1331.25,-854"/>
<text text-anchor="middle" x="1285" y="-843.6" font-family="Times,serif" font-size="8.00">cv</text>
<text text-anchor="middle" x="1285" y="-834.6" font-family="Times,serif" font-size="8.00">calcOpticalFlowPyrLK</text>
<text text-anchor="end" x="1323.5" y="-825.6" font-family="Times,serif" font-size="8.00">0 (0.0%)</text>
<text text-anchor="end" x="1323.5" y="-816.6" font-family="Times,serif" font-size="8.00">of 309 (0.5%)</text>
</g>
<!-- N25&#45;&gt;N24 -->
<g id="edge25" class="edge"><title>N25-&gt;N24</title>
<path fill="none" stroke="black" d="M1285,-914.371C1285,-899.401 1285,-880.392 1285,-864.513"/>
<polygon fill="black" stroke="black" points="1288.5,-864.107 1285,-854.107 1281.5,-864.107 1288.5,-864.107"/>
<text text-anchor="middle" x="1295.5" y="-884.3" font-family="Times,serif" font-size="14.00">309</text>
</g>
<!-- N26 -->
<g id="node27" class="node"><title>N26</title>
<polygon fill="none" stroke="black" points="1397.25,-162 1320.75,-162 1320.75,-106 1397.25,-106 1397.25,-162"/>
<text text-anchor="middle" x="1359" y="-149.28" font-family="Times,serif" font-size="10.90">cv</text>
<text text-anchor="middle" x="1359" y="-137.28" font-family="Times,serif" font-size="10.90">AGAST</text>
<text text-anchor="end" x="1389.5" y="-125.28" font-family="Times,serif" font-size="10.90">196 (0.3%)</text>
<text text-anchor="end" x="1389.5" y="-113.28" font-family="Times,serif" font-size="10.90">of 307 (0.5%)</text>
</g>
<!-- N26&#45;&gt;N18 -->
<g id="edge32" class="edge"><title>N26-&gt;N18</title>
<path fill="none" stroke="black" d="M1328.61,-105.96C1313,-92.0698 1293.87,-75.0425 1277.47,-60.4481"/>
<polygon fill="black" stroke="black" points="1279.46,-57.5363 1269.66,-53.5034 1274.8,-62.7657 1279.46,-57.5363"/>
<text text-anchor="middle" x="1317.5" y="-76.3" font-family="Times,serif" font-size="14.00">104</text>
</g>
<!-- N26&#45;&gt;N26 -->
<g id="edge29" class="edge"><title>N26-&gt;N26</title>
<path fill="none" stroke="black" d="M1397.48,-144.021C1407.47,-143.405 1415,-140.064 1415,-134 1415,-130.21 1412.06,-127.484 1407.41,-125.822"/>
<polygon fill="black" stroke="black" points="1407.95,-122.361 1397.48,-123.979 1406.67,-129.244 1407.95,-122.361"/>
<text text-anchor="middle" x="1425.5" y="-130.3" font-family="Times,serif" font-size="14.00">196</text>
</g>
<!-- N27&#45;&gt;N26 -->
<g id="edge28" class="edge"><title>N27-&gt;N26</title>
<path fill="none" stroke="black" d="M1359,-216.371C1359,-203.237 1359,-186.993 1359,-172.482"/>
<polygon fill="black" stroke="black" points="1362.5,-172.29 1359,-162.29 1355.5,-172.291 1362.5,-172.29"/>
<text text-anchor="middle" x="1369.5" y="-184.3" font-family="Times,serif" font-size="14.00">307</text>
</g>
</g>
</g></svg>